<svg version="1.1" viewBox="0.0 0.0 960.0 192.0" fill="none" stroke="none" stroke-linecap="square" stroke-miterlimit="10" xmlns:xlink="http://www.w3.org/1999/xlink" xmlns="http://www.w3.org/2000/svg"><clipPath id="p.0"><path d="m0 0l960.0 0l0 192.0l-960.0 0l0 -192.0z" clip-rule="nonzero"/></clipPath><g clip-path="url(#p.0)"><path fill="#000000" fill-opacity="0.0" d="m0 0l960.0 0l0 192.0l-960.0 0z" fill-rule="evenodd"/><path fill="#00a6a6" d="m56.704082 47.444332c6.693695 0 12.01823 1.4856148 15.973591 4.4568443c3.9807205 2.9712296 5.9710846 7.4153786 5.9710846 13.332443c0 5.155205 -1.5973587 9.76442 -4.792076 13.827644c-3.194725 4.0378265 -8.138931 6.05674 -14.832626 6.05674l-20.53748 0l0 -37.67367zm1.1790009 70.47148c4.8174286 0 9.444691 0.50790405 13.881817 1.5237045c4.4371033 0.99040985 8.050179 2.7807617 10.839226 5.371071c2.814392 2.564911 4.221588 6.348793 4.221588 11.351616c0 4.3679504 -1.1663208 7.999466 -3.4989777 10.894516c-2.3326569 2.8696442 -5.5273743 4.9774475 -9.584152 6.3233795c-4.031433 1.3205414 -8.544601 1.9808197 -13.539524 1.9808197l-21.716484 0l0 -37.445107zm-53.283348 -103.231186l0 172.25514l57.238716 0c7.6318245 0 15.022785 -0.8888397 22.17287 -2.6664886c7.1754303 -1.8030548 13.602905 -4.698105 19.28241 -8.685135c5.704857 -3.98703 10.230705 -9.21843 13.577553 -15.694183c3.3468552 -6.475754 5.020279 -14.386337 5.020279 -23.73175c0 -10.158043 -3.194725 -18.855865 -9.58416 -26.09349c-4.9692383 -5.6486435 -11.326401 -10.27581 -19.071503 -13.8815l0 0c5.012306 -3.10849 9.22699 -6.9886856 12.644035 -11.640602c5.223114 -7.110634 7.8346634 -15.960831 7.8346634 -26.550602c0 -14.373638 -5.299179 -25.17926 -15.89753 -32.416878c-10.598343 -7.2630043 -24.847801 -10.894509 -42.748383 -10.894509z" fill-rule="evenodd"/><path fill="#00a6a6" d="m221.2004 79.51838c-2.636917 0 -6.49086 1.1681747 -11.561844 3.5045242c-5.070984 2.3363495 -10.179993 5.6504135 -15.327042 9.942192c-5.0109406 4.198967 -8.990402 9.260895 -11.93837 15.185776l0 0l-2.5139313 -23.489983l-29.475082 0l0 102.27887l32.47963 0l0 -40.035416c0 -5.9170685 1.4832764 -11.681778 4.4497986 -17.294083c2.9665222 -5.6123276 7.1754456 -10.132652 12.6267395 -13.560997c4.2854156 -2.7150803 9.244614 -4.0726166 14.877594 -4.0726166c1.5325012 0 3.1148834 0.100479126 4.747116 0.301445l1.6353912 -32.759712z" fill-rule="evenodd"/><path fill="#00a6a6" d="m293.87564 106.18326c4.2089233 0 8.024841 0.67297363 11.447754 2.0189133c3.4229126 1.320549 6.3767395 3.187088 8.861542 5.5996246c2.5101318 2.4125366 4.386383 5.3329773 5.628784 8.761314l0 25.064987c-1.7241516 3.4283447 -3.752533 6.2725983 -6.0851746 8.532761c-2.332672 2.2601776 -5.058319 3.97435 -8.176971 5.142517c-3.1186523 1.1681671 -6.6176147 1.7522736 -10.496918 1.7522736c-4.842804 0 -9.330627 -1.2443695 -13.46347 -3.7330933c-4.107483 -2.4887238 -7.416321 -5.9170685 -9.926453 -10.285019c-2.4847717 -4.3679657 -3.7271729 -9.281921 -3.7271729 -14.741882c0 -5.4599457 1.1663208 -10.297722 3.498993 -14.513306c2.3326416 -4.2155914 5.489319 -7.5296555 9.470062 -9.942192c3.980713 -2.4379349 8.303711 -3.6568985 12.969025 -3.6568985zm-9.355957 -26.664879c-8.569977 0 -16.670868 2.298256 -24.302704 6.8947754c-7.6318054 4.5965195 -13.79306 11.110367 -18.483719 19.54155c-4.6652985 8.431175 -6.9979553 18.424156 -6.9979553 29.97895c0 12.316635 2.2565918 22.46199 6.76976 30.43605c4.5385284 7.9486694 10.661743 13.840332 18.369629 17.675003c7.7078857 3.8092804 16.315887 5.713913 25.823975 5.713913c6.059845 0 11.308289 -0.9015198 15.745422 -2.7045898c4.4624634 -1.8030548 8.202301 -3.9108582 11.219543 -6.3233795c3.042572 -2.4125519 5.337219 -4.5076447 6.88385 -6.2852936c0.09085083 -0.10421753 0.17959595 -0.20541382 0.26623535 -0.30360413l0 0l0 12.798004l32.707825 0l0 -102.27887l-30.387848 0l-2.1219482 10.440575l0 0c-3.3430176 -3.8413162 -7.503845 -7.3595963 -12.482483 -10.554855c-5.197754 -3.35215 -12.867615 -5.0282288 -23.009583 -5.0282288z" fill-rule="evenodd"/><path fill="#00a6a6" d="m457.2024 79.74693c-9.508118 0 -17.532928 1.993515 -24.074493 5.9805527c-6.431061 3.8947067 -11.428528 8.967537 -14.992432 15.218475l0 0l-2.2742615 -16.285072l-29.703278 0l0 102.27887l32.74585 0l0 -41.6734c0 -7.313797 1.0015259 -13.776855 3.0045776 -19.389183c2.0283813 -5.637718 4.9061584 -10.094559 8.633331 -13.370529c3.752533 -3.2759705 8.126251 -4.9139557 13.121155 -4.9139557c5.2991943 0 9.077057 1.3713379 11.333649 4.114006c2.2565918 2.7172775 3.460968 6.3360825 3.6130981 10.856415l0 64.37665l32.707825 0l0 -76.52821c-0.15213013 -9.040657 -3.4609375 -16.405243 -9.926453 -22.093758c-6.4654846 -5.7139053 -14.528351 -8.570854 -24.188568 -8.570854z" fill-rule="evenodd"/><path fill="#00a6a6" d="m577.3289 105.269035c4.361023 0 8.367126 0.6602707 12.0182495 1.9808197c3.651062 1.320549 6.75708 3.1997833 9.317932 5.637718c2.5861816 2.412529 4.5004883 5.3329773 5.742859 8.761314l0 25.026894c-1.8508911 3.4283447 -4.069458 6.2852936 -6.6556396 8.570862c-2.560852 2.2601624 -5.5147095 3.9743347 -8.861572 5.142517c-3.3468628 1.1681671 -7.2008057 1.7522583 -11.561829 1.7522583c-4.8427734 0 -9.330627 -1.2443542 -13.46344 -3.733078c-4.107544 -2.5141296 -7.416321 -5.9551697 -9.926453 -10.32312c-2.4848022 -4.3679657 -3.7271729 -9.281921 -3.7271729 -14.741882c0 -5.4599533 1.2423706 -10.297722 3.7271729 -14.513306c2.5101318 -4.215599 5.8189087 -7.529663 9.926453 -9.942192c4.1328125 -2.4125366 8.6206665 -3.618805 13.46344 -3.618805zm27.307251 -103.00263l0 89.67019c-4.031433 -4.2155914 -9.051697 -7.3391953 -15.060852 -9.370804c-5.9837646 -2.031601 -12.246399 -3.047409 -18.787964 -3.047409c-10.294067 0 -19.497925 2.107788 -27.611511 6.3233795c-8.088196 4.215599 -14.477661 10.386612 -19.168335 18.513054c-4.665283 8.101044 -6.997925 17.91626 -6.997925 29.445648c0 11.554779 2.142517 21.547775 6.42749 29.978943c4.284973 8.431183 10.167297 14.868851 17.646973 19.312988c7.4797363 4.4441376 15.973633 6.6662292 25.48169 6.6662292c8.570007 0 16.125732 -1.5237122 22.667297 -4.571121c5.4969482 -2.560791 10.555237 -5.587799 15.174927 -9.081024l0 0l0 10.833282l32.707825 0l0 -184.67336z" fill-rule="evenodd"/><path stroke="#00a6a6" stroke-width="1.0" stroke-linejoin="round" stroke-linecap="butt" d="m56.704082 47.444332c6.693695 0 12.01823 1.4856148 15.973591 4.4568443c3.9807205 2.9712296 5.9710846 7.4153786 5.9710846 13.332443c0 5.155205 -1.5973587 9.76442 -4.792076 13.827644c-3.194725 4.0378265 -8.138931 6.05674 -14.832626 6.05674l-20.53748 0l0 -37.67367zm1.1790009 70.47148c4.8174286 0 9.444691 0.50790405 13.881817 1.5237045c4.4371033 0.99040985 8.050179 2.7807617 10.839226 5.371071c2.814392 2.564911 4.221588 6.348793 4.221588 11.351616c0 4.3679504 -1.1663208 7.999466 -3.4989777 10.894516c-2.3326569 2.8696442 -5.5273743 4.9774475 -9.584152 6.3233795c-4.031433 1.3205414 -8.544601 1.9808197 -13.539524 1.9808197l-21.716484 0l0 -37.445107zm-53.283348 -103.231186l0 172.25514l57.238716 0c7.6318245 0 15.022785 -0.8888397 22.17287 -2.6664886c7.1754303 -1.8030548 13.602905 -4.698105 19.28241 -8.685135c5.704857 -3.98703 10.230705 -9.21843 13.577553 -15.694183c3.3468552 -6.475754 5.020279 -14.386337 5.020279 -23.73175c0 -10.158043 -3.194725 -18.855865 -9.58416 -26.09349c-4.9692383 -5.6486435 -11.326401 -10.27581 -19.071503 -13.8815l0 0c5.012306 -3.10849 9.22699 -6.9886856 12.644035 -11.640602c5.223114 -7.110634 7.8346634 -15.960831 7.8346634 -26.550602c0 -14.373638 -5.299179 -25.17926 -15.89753 -32.416878c-10.598343 -7.2630043 -24.847801 -10.894509 -42.748383 -10.894509z" fill-rule="evenodd"/><path stroke="#00a6a6" stroke-width="1.0" stroke-linejoin="round" stroke-linecap="butt" d="m221.2004 79.51838c-2.636917 0 -6.49086 1.1681747 -11.561844 3.5045242c-5.070984 2.3363495 -10.179993 5.6504135 -15.327042 9.942192c-5.0109406 4.198967 -8.990402 9.260895 -11.93837 15.185776l0 0l-2.5139313 -23.489983l-29.475082 0l0 102.27887l32.47963 0l0 -40.035416c0 -5.9170685 1.4832764 -11.681778 4.4497986 -17.294083c2.9665222 -5.6123276 7.1754456 -10.132652 12.6267395 -13.560997c4.2854156 -2.7150803 9.244614 -4.0726166 14.877594 -4.0726166c1.5325012 0 3.1148834 0.100479126 4.747116 0.301445l1.6353912 -32.759712z" fill-rule="evenodd"/><path stroke="#00a6a6" stroke-width="1.0" stroke-linejoin="round" stroke-linecap="butt" d="m293.87564 106.18326c4.2089233 0 8.024841 0.67297363 11.447754 2.0189133c3.4229126 1.320549 6.3767395 3.187088 8.861542 5.5996246c2.5101318 2.4125366 4.386383 5.3329773 5.628784 8.761314l0 25.064987c-1.7241516 3.4283447 -3.752533 6.2725983 -6.0851746 8.532761c-2.332672 2.2601776 -5.058319 3.97435 -8.176971 5.142517c-3.1186523 1.1681671 -6.6176147 1.7522736 -10.496918 1.7522736c-4.842804 0 -9.330627 -1.2443695 -13.46347 -3.7330933c-4.107483 -2.4887238 -7.416321 -5.9170685 -9.926453 -10.285019c-2.4847717 -4.3679657 -3.7271729 -9.281921 -3.7271729 -14.741882c0 -5.4599457 1.1663208 -10.297722 3.498993 -14.513306c2.3326416 -4.2155914 5.489319 -7.5296555 9.470062 -9.942192c3.980713 -2.4379349 8.303711 -3.6568985 12.969025 -3.6568985zm-9.355957 -26.664879c-8.569977 0 -16.670868 2.298256 -24.302704 6.8947754c-7.6318054 4.5965195 -13.79306 11.110367 -18.483719 19.54155c-4.6652985 8.431175 -6.9979553 18.424156 -6.9979553 29.97895c0 12.316635 2.2565918 22.46199 6.76976 30.43605c4.5385284 7.9486694 10.661743 13.840332 18.369629 17.675003c7.7078857 3.8092804 16.315887 5.713913 25.823975 5.713913c6.059845 0 11.308289 -0.9015198 15.745422 -2.7045898c4.4624634 -1.8030548 8.202301 -3.9108582 11.219543 -6.3233795c3.042572 -2.4125519 5.337219 -4.5076447 6.88385 -6.2852936c0.09085083 -0.10421753 0.17959595 -0.20541382 0.26623535 -0.30360413l0 0l0 12.798004l32.707825 0l0 -102.27887l-30.387848 0l-2.1219482 10.440575l0 0c-3.3430176 -3.8413162 -7.503845 -7.3595963 -12.482483 -10.554855c-5.197754 -3.35215 -12.867615 -5.0282288 -23.009583 -5.0282288z" fill-rule="evenodd"/><path stroke="#00a6a6" stroke-width="1.0" stroke-linejoin="round" stroke-linecap="butt" d="m457.2024 79.74693c-9.508118 0 -17.532928 1.993515 -24.074493 5.9805527c-6.431061 3.8947067 -11.428528 8.967537 -14.992432 15.218475l0 0l-2.2742615 -16.285072l-29.703278 0l0 102.27887l32.74585 0l0 -41.6734c0 -7.313797 1.0015259 -13.776855 3.0045776 -19.389183c2.0283813 -5.637718 4.9061584 -10.094559 8.633331 -13.370529c3.752533 -3.2759705 8.126251 -4.9139557 13.121155 -4.9139557c5.2991943 0 9.077057 1.3713379 11.333649 4.114006c2.2565918 2.7172775 3.460968 6.3360825 3.6130981 10.856415l0 64.37665l32.707825 0l0 -76.52821c-0.15213013 -9.040657 -3.4609375 -16.405243 -9.926453 -22.093758c-6.4654846 -5.7139053 -14.528351 -8.570854 -24.188568 -8.570854z" fill-rule="evenodd"/><path stroke="#00a6a6" stroke-width="1.0" stroke-linejoin="round" stroke-linecap="butt" d="m577.3289 105.269035c4.361023 0 8.367126 0.6602707 12.0182495 1.9808197c3.651062 1.320549 6.75708 3.1997833 9.317932 5.637718c2.5861816 2.412529 4.5004883 5.3329773 5.742859 8.761314l0 25.026894c-1.8508911 3.4283447 -4.069458 6.2852936 -6.6556396 8.570862c-2.560852 2.2601624 -5.5147095 3.9743347 -8.861572 5.142517c-3.3468628 1.1681671 -7.2008057 1.7522583 -11.561829 1.7522583c-4.8427734 0 -9.330627 -1.2443542 -13.46344 -3.733078c-4.107544 -2.5141296 -7.416321 -5.9551697 -9.926453 -10.32312c-2.4848022 -4.3679657 -3.7271729 -9.281921 -3.7271729 -14.741882c0 -5.4599533 1.2423706 -10.297722 3.7271729 -14.513306c2.5101318 -4.215599 5.8189087 -7.529663 9.926453 -9.942192c4.1328125 -2.4125366 8.6206665 -3.618805 13.46344 -3.618805zm27.307251 -103.00263l0 89.67019c-4.031433 -4.2155914 -9.051697 -7.3391953 -15.060852 -9.370804c-5.9837646 -2.031601 -12.246399 -3.047409 -18.787964 -3.047409c-10.294067 0 -19.497925 2.107788 -27.611511 6.3233795c-8.088196 4.215599 -14.477661 10.386612 -19.168335 18.513054c-4.665283 8.101044 -6.997925 17.91626 -6.997925 29.445648c0 11.554779 2.142517 21.547775 6.42749 29.978943c4.284973 8.431183 10.167297 14.868851 17.646973 19.312988c7.4797363 4.4441376 15.973633 6.6662292 25.48169 6.6662292c8.570007 0 16.125732 -1.5237122 22.667297 -4.571121c5.4969482 -2.560791 10.555237 -5.587799 15.174927 -9.081024l0 0l0 10.833282l32.707825 0l0 -184.67336z" fill-rule="evenodd"/><path fill="#f49f0a" d="m637.3994 2.2664042l0 184.66943l37.3302 0l0 -69.751305l9.136169 -9.025192l57.669617 78.7765l46.714417 0l-77.47156 -101.84997l77.22351 -82.819466l-47.747925 0l-60.976807 67.99527l-5.5809326 7.0241394l1.0335083 -9.270226l0 -65.74918z" fill-rule="evenodd"/><path fill="#f49f0a" d="m829.15076 20.602667c-4.7403564 0 -9.191345 1.6743565 -13.352905 5.023073c-4.134033 3.3214912 -6.20105 7.58226 -6.20105 12.782295c0 5.1728134 2.0670166 9.392738 6.20105 12.659779c4.161621 3.2670403 8.612549 4.9005585 13.352905 4.9005585c4.7403564 0 9.094849 -1.6335182 13.063477 -4.9005585c3.9962158 -3.2670403 5.9943237 -7.486965 5.9943237 -12.659779c0 -5.200035 -1.9981079 -9.460804 -5.9943237 -12.782295c-3.968628 -3.3487167 -8.32312 -5.023073 -13.063477 -5.023073zm-18.809814 56.683144l0 109.650024l35.593933 0l0 -109.650024z" fill-rule="evenodd"/><path fill="#f49f0a" d="m892.893 29.09697l0 47.698784l-17.280212 0l0 27.320625l17.280212 0l0 82.81946l35.552612 0l0 -82.81946l26.953796 0l0 -27.320625l-26.953796 0l0 -47.698784z" fill-rule="evenodd"/><path stroke="#f49f0a" stroke-width="1.0" stroke-linejoin="round" stroke-linecap="butt" d="m637.3994 2.2664042l0 184.66943l37.3302 0l0 -69.751305l9.136169 -9.025192l57.669617 78.7765l46.714417 0l-77.47156 -101.84997l77.22351 -82.819466l-47.747925 0l-60.976807 67.99527l-5.5809326 7.0241394l1.0335083 -9.270226l0 -65.74918z" fill-rule="evenodd"/><path stroke="#f49f0a" stroke-width="1.0" stroke-linejoin="round" stroke-linecap="butt" d="m829.15076 20.602667c-4.7403564 0 -9.191345 1.6743565 -13.352905 5.023073c-4.134033 3.3214912 -6.20105 7.58226 -6.20105 12.782295c0 5.1728134 2.0670166 9.392738 6.20105 12.659779c4.161621 3.2670403 8.612549 4.9005585 13.352905 4.9005585c4.7403564 0 9.094849 -1.6335182 13.063477 -4.9005585c3.9962158 -3.2670403 5.9943237 -7.486965 5.9943237 -12.659779c0 -5.200035 -1.9981079 -9.460804 -5.9943237 -12.782295c-3.968628 -3.3487167 -8.32312 -5.023073 -13.063477 -5.023073zm-18.809814 56.683144l0 109.650024l35.593933 0l0 -109.650024z" fill-rule="evenodd"/><path stroke="#f49f0a" stroke-width="1.0" stroke-linejoin="round" stroke-linecap="butt" d="m892.893 29.09697l0 47.698784l-17.280212 0l0 27.320625l17.280212 0l0 82.81946l35.552612 0l0 -82.81946l26.953796 0l0 -27.320625l-26.953796 0l0 -47.698784z" fill-rule="evenodd"/></g></svg>